<?xml version="1.0" encoding="UTF-8"?>
<svg xmlns="http://www.w3.org/2000/svg" xmlns:xlink="http://www.w3.org/1999/xlink" viewBox="0 0 24 24" width="24px" height="24px">
<g id="surface29462660">
<path style=" stroke:none;fill-rule:nonzero;fill:rgb(18.039216%,80.000001%,44.313726%);fill-opacity:1;" d="M 5.304688 22.800781 C 3.039062 22.800781 1.199219 20.960938 1.199219 18.695312 L 1.199219 5.304688 C 1.199219 3.039062 3.039062 1.199219 5.304688 1.199219 L 18.695312 1.199219 C 20.960938 1.199219 22.800781 3.039062 22.800781 5.304688 L 22.800781 18.695312 C 22.800781 20.960938 20.960938 22.800781 18.695312 22.800781 Z M 5.304688 22.800781 "/>
<path style=" stroke:none;fill-rule:evenodd;fill:rgb(100%,100%,100%);fill-opacity:1;" d="M 11.199219 4 L 11.199219 11.199219 L 4 11.199219 L 4 12.800781 L 11.199219 12.800781 L 11.199219 20 L 12.800781 20 L 12.800781 12.800781 L 20 12.800781 L 20 11.199219 L 12.800781 11.199219 L 12.800781 4 Z M 11.199219 4 "/>
</g>
</svg>
